<svg width="682" height="714" viewBox="0 0 682 714" fill="none" xmlns="http://www.w3.org/2000/svg">
<rect x="54.9607" y="611.743" width="233.825" height="144.807" rx="38" transform="rotate(-45.1034 54.9607 611.743)" fill="black" stroke="black" stroke-width="30"/>
<rect x="4.78683" y="571.491" width="408.922" height="126.583" rx="63.2913" transform="rotate(-45.1034 4.78683 571.491)" fill="black" stroke="black" stroke-width="30"/>
<mask id="path-3-outside-1_112_2" maskUnits="userSpaceOnUse" x="234.018" y="78" width="351" height="351" fill="black">
<rect fill="white" x="234.018" y="78" width="351" height="351"/>
<path fill-rule="evenodd" clip-rule="evenodd" d="M409.233 388.43C483.911 388.43 544.449 327.892 544.449 253.215C544.449 178.538 483.911 118 409.233 118C334.556 118 274.018 178.538 274.018 253.215C274.018 327.892 334.556 388.43 409.233 388.43ZM409.233 329.274C451.239 329.274 485.292 295.221 485.292 253.215C485.292 211.209 451.239 177.157 409.233 177.157C367.227 177.157 333.175 211.209 333.175 253.215C333.175 295.221 367.227 329.274 409.233 329.274Z"/>
</mask>
<path fill-rule="evenodd" clip-rule="evenodd" d="M409.233 388.43C483.911 388.43 544.449 327.892 544.449 253.215C544.449 178.538 483.911 118 409.233 118C334.556 118 274.018 178.538 274.018 253.215C274.018 327.892 334.556 388.43 409.233 388.43ZM409.233 329.274C451.239 329.274 485.292 295.221 485.292 253.215C485.292 211.209 451.239 177.157 409.233 177.157C367.227 177.157 333.175 211.209 333.175 253.215C333.175 295.221 367.227 329.274 409.233 329.274Z" fill="black"/>
<path d="M504.449 253.215C504.449 305.801 461.819 348.43 409.233 348.43V428.43C506.002 428.43 584.449 349.984 584.449 253.215H504.449ZM409.233 158C461.819 158 504.449 200.629 504.449 253.215H584.449C584.449 156.446 506.002 78 409.233 78V158ZM314.018 253.215C314.018 200.629 356.648 158 409.233 158V78C312.465 78 234.018 156.446 234.018 253.215H314.018ZM409.233 348.43C356.648 348.43 314.018 305.801 314.018 253.215H234.018C234.018 349.984 312.465 428.43 409.233 428.43V348.43ZM445.292 253.215C445.292 273.13 429.148 289.274 409.233 289.274V369.274C473.331 369.274 525.292 317.312 525.292 253.215H445.292ZM409.233 217.157C429.148 217.157 445.292 233.301 445.292 253.215H525.292C525.292 189.118 473.331 137.157 409.233 137.157V217.157ZM373.175 253.215C373.175 233.301 389.319 217.157 409.233 217.157V137.157C345.136 137.157 293.175 189.118 293.175 253.215H373.175ZM409.233 289.274C389.319 289.274 373.175 273.13 373.175 253.215H293.175C293.175 317.312 345.136 369.274 409.233 369.274V289.274Z" fill="black" mask="url(#path-3-outside-1_112_2)"/>
<rect x="35.5095" y="593.207" width="238.715" height="144.807" rx="38" transform="rotate(-45.1034 35.5095 593.207)" fill="#F8F8F8" stroke="black" stroke-width="30"/>
<rect x="-11.2132" y="549.491" width="408.922" height="126.583" rx="63.2913" transform="rotate(-45.1034 -11.2132 549.491)" fill="#F8F8F8" stroke="black" stroke-width="30"/>
<mask id="path-7-outside-2_112_2" maskUnits="userSpaceOnUse" x="218.018" y="56" width="351" height="351" fill="black">
<rect fill="white" x="218.018" y="56" width="351" height="351"/>
<path fill-rule="evenodd" clip-rule="evenodd" d="M393.233 366.43C467.911 366.43 528.449 305.892 528.449 231.215C528.449 156.538 467.911 96 393.233 96C318.556 96 258.018 156.538 258.018 231.215C258.018 305.892 318.556 366.43 393.233 366.43ZM393.233 307.274C435.239 307.274 469.292 273.221 469.292 231.215C469.292 189.209 435.239 155.157 393.233 155.157C351.227 155.157 317.175 189.209 317.175 231.215C317.175 273.221 351.227 307.274 393.233 307.274Z"/>
</mask>
<path fill-rule="evenodd" clip-rule="evenodd" d="M393.233 366.43C467.911 366.43 528.449 305.892 528.449 231.215C528.449 156.538 467.911 96 393.233 96C318.556 96 258.018 156.538 258.018 231.215C258.018 305.892 318.556 366.43 393.233 366.43ZM393.233 307.274C435.239 307.274 469.292 273.221 469.292 231.215C469.292 189.209 435.239 155.157 393.233 155.157C351.227 155.157 317.175 189.209 317.175 231.215C317.175 273.221 351.227 307.274 393.233 307.274Z" fill="#F8F8F8"/>
<path d="M488.449 231.215C488.449 283.801 445.819 326.43 393.233 326.43V406.43C490.002 406.43 568.449 327.984 568.449 231.215H488.449ZM393.233 136C445.819 136 488.449 178.629 488.449 231.215H568.449C568.449 134.446 490.002 56 393.233 56V136ZM298.018 231.215C298.018 178.629 340.648 136 393.233 136V56C296.465 56 218.018 134.446 218.018 231.215H298.018ZM393.233 326.43C340.648 326.43 298.018 283.801 298.018 231.215H218.018C218.018 327.984 296.465 406.43 393.233 406.43V326.43ZM429.292 231.215C429.292 251.13 413.148 267.274 393.233 267.274V347.274C457.331 347.274 509.292 295.312 509.292 231.215H429.292ZM393.233 195.157C413.148 195.157 429.292 211.301 429.292 231.215H509.292C509.292 167.118 457.331 115.157 393.233 115.157V195.157ZM357.175 231.215C357.175 211.301 373.319 195.157 393.233 195.157V115.157C329.136 115.157 277.175 167.118 277.175 231.215H357.175ZM393.233 267.274C373.319 267.274 357.175 251.13 357.175 231.215H277.175C277.175 295.312 329.136 347.274 393.233 347.274V267.274Z" fill="black" mask="url(#path-7-outside-2_112_2)"/>
<mask id="path-9-outside-3_112_2" maskUnits="userSpaceOnUse" x="428" y="0" width="201" height="237" fill="black">
<rect fill="white" x="428" width="201" height="237"/>
<path d="M517.342 184.291L526.316 214.131C526.654 215.255 527.526 216 528.501 216C529.476 216 530.348 215.255 530.685 214.131L539.659 184.291C546.923 160.133 562.45 141.09 582.147 132.183L606.478 121.177C607.393 120.764 608 119.694 608 118.498C608 117.303 607.393 116.233 606.478 115.819L582.145 104.813C562.449 95.9048 546.922 76.8632 539.659 52.7073L530.685 22.8668C530.348 21.745 529.476 21 528.501 21C527.526 21 526.654 21.745 526.316 22.8668L517.342 52.7073C510.078 76.8632 494.552 95.9048 474.855 104.813L450.522 115.819C449.607 116.233 449 117.303 449 118.498C449 119.694 449.607 120.764 450.522 121.177L474.853 132.183C494.551 141.09 510.078 160.132 517.342 184.291Z"/>
</mask>
<path d="M517.342 184.291L526.316 214.131C526.654 215.255 527.526 216 528.501 216C529.476 216 530.348 215.255 530.685 214.131L539.659 184.291C546.923 160.133 562.45 141.09 582.147 132.183L606.478 121.177C607.393 120.764 608 119.694 608 118.498C608 117.303 607.393 116.233 606.478 115.819L582.145 104.813C562.449 95.9048 546.922 76.8632 539.659 52.7073L530.685 22.8668C530.348 21.745 529.476 21 528.501 21C527.526 21 526.654 21.745 526.316 22.8668L517.342 52.7073C510.078 76.8632 494.552 95.9048 474.855 104.813L450.522 115.819C449.607 116.233 449 117.303 449 118.498C449 119.694 449.607 120.764 450.522 121.177L474.853 132.183C494.551 141.09 510.078 160.132 517.342 184.291Z" fill="#FFC633"/>
<path d="M517.342 184.291L497.232 190.338L497.232 190.339L517.342 184.291ZM526.316 214.131L546.429 208.092L546.426 208.084L526.316 214.131ZM530.685 214.131L510.575 208.084L510.572 208.092L530.685 214.131ZM539.659 184.291L559.769 190.339L559.77 190.338L539.659 184.291ZM582.147 132.183L590.799 151.318L590.801 151.317L582.147 132.183ZM606.478 121.177L597.823 102.044L597.823 102.044L606.478 121.177ZM606.478 115.819L615.132 96.6855L615.132 96.6854L606.478 115.819ZM582.145 104.813L590.8 85.6796L590.799 85.6795L582.145 104.813ZM539.659 52.7073L559.77 46.661L559.769 46.6595L539.659 52.7073ZM530.685 22.8668L510.575 28.9145L510.575 28.9146L530.685 22.8668ZM526.316 22.8668L546.426 28.9146L546.427 28.9145L526.316 22.8668ZM517.342 52.7073L497.232 46.6595L497.232 46.66L517.342 52.7073ZM474.855 104.813L466.201 85.6793L466.2 85.6796L474.855 104.813ZM450.522 115.819L441.868 96.6854L441.868 96.6855L450.522 115.819ZM450.522 121.177L459.177 102.044L459.177 102.044L450.522 121.177ZM474.853 132.183L466.199 151.317L466.201 151.318L474.853 132.183ZM497.232 190.339L506.206 220.179L546.426 208.084L537.453 178.243L497.232 190.339ZM506.203 220.171C508.495 227.804 515.995 237 528.501 237V195C539.056 195 544.812 202.706 546.429 208.092L506.203 220.171ZM528.501 237C541.006 237 548.506 227.804 550.798 220.171L510.572 208.092C512.19 202.706 517.945 195 528.501 195V237ZM550.795 220.179L559.769 190.339L519.549 178.243L510.575 208.084L550.795 220.179ZM559.77 190.338C565.608 170.922 577.579 157.296 590.799 151.318L573.494 113.049C547.322 124.884 528.238 149.345 519.549 178.244L559.77 190.338ZM590.801 151.317L615.133 140.311L597.823 102.044L573.492 113.05L590.801 151.317ZM615.132 140.311C625.199 135.758 629 125.983 629 118.498H587C587 113.405 589.586 105.77 597.823 102.044L615.132 140.311ZM629 118.498C629 111.013 625.199 101.239 615.132 96.6855L597.823 134.953C589.586 131.227 587 123.592 587 118.498H629ZM615.132 96.6854L590.8 85.6796L573.491 123.947L597.823 134.953L615.132 96.6854ZM590.799 85.6795C577.577 79.6989 565.606 66.0736 559.77 46.661L519.548 58.7536C528.237 87.6529 547.321 112.111 573.491 123.947L590.799 85.6795ZM559.769 46.6595L550.795 16.8191L510.575 28.9146L519.549 58.7551L559.769 46.6595ZM550.796 16.8192C548.5 9.18666 540.999 0 528.501 0V42C517.953 42 512.195 34.3034 510.575 28.9145L550.796 16.8192ZM528.501 0C516.003 0 508.501 9.18666 506.206 16.8192L546.427 28.9145C544.806 34.3034 539.049 42 528.501 42V0ZM506.206 16.8191L497.232 46.6595L537.453 58.7551L546.426 28.9146L506.206 16.8191ZM497.232 46.66C491.394 66.0741 479.424 79.6989 466.201 85.6793L483.509 123.947C509.681 112.111 528.763 87.6524 537.453 58.7547L497.232 46.66ZM466.2 85.6796L441.868 96.6854L459.177 134.953L483.509 123.947L466.2 85.6796ZM441.868 96.6855C431.801 101.239 428 111.013 428 118.498H470C470 123.592 467.414 131.227 459.177 134.953L441.868 96.6855ZM428 118.498C428 125.983 431.801 135.758 441.868 140.311L459.177 102.044C467.414 105.77 470 113.405 470 118.498H428ZM441.867 140.311L466.199 151.317L483.508 113.05L459.177 102.044L441.867 140.311ZM466.201 151.318C479.423 157.297 491.394 170.921 497.232 190.338L537.453 178.244C528.763 149.343 509.679 124.884 483.506 113.049L466.201 151.318Z" fill="black" mask="url(#path-9-outside-3_112_2)"/>
<path d="M590.506 327.884L590.506 327.885L596.488 347.774C596.488 347.775 596.489 347.777 596.489 347.778C597.693 351.781 601.587 356.5 608 356.5C614.413 356.5 618.308 351.781 619.512 347.778C619.512 347.777 619.513 347.775 619.513 347.774L625.495 327.885L625.495 327.884C629.624 314.15 638.198 304.163 648.091 299.689L648.092 299.689L664.313 292.352C664.313 292.352 664.313 292.352 664.313 292.352C669.498 290.006 671.5 284.941 671.5 280.999C671.5 277.057 669.498 271.992 664.313 269.646L664.312 269.646L648.091 262.309L648.091 262.309C638.197 257.834 629.623 247.847 625.495 234.115L625.495 234.114L619.512 214.221C619.512 214.221 619.512 214.221 619.512 214.221C618.308 210.217 614.412 205.5 608 205.5C601.589 205.5 597.693 210.217 596.489 214.221C596.489 214.221 596.489 214.221 596.489 214.221L590.506 234.114L590.506 234.115C586.377 247.848 577.804 257.834 567.91 262.309L567.909 262.309L551.688 269.646L551.687 269.646C546.502 271.992 544.5 277.057 544.5 280.999C544.5 284.941 546.502 290.006 551.687 292.352C551.687 292.352 551.687 292.352 551.687 292.352L567.908 299.689L567.909 299.69C577.803 304.163 586.377 314.149 590.506 327.884ZM616.599 220.268C616.599 220.269 616.599 220.269 616.599 220.27L616.599 220.268ZM560.342 273.218C560.344 273.219 560.346 273.22 560.348 273.221L560.342 273.218Z" fill="#FFC633" stroke="black" stroke-width="21"/>
</svg>
